PathFileType	4	(X/Y/Z)	Trial59_Left_Knee_markers_cropped.trc
DataRate	CameraRate	NumFrames	NumMarkers	Units	OrigDataRate	OrigDataStartFrame	OrigNumFrames																																																																																													
200	200	8	27	m	200	63	101
Frame#	Time	R_ASIS			L_ASIS			Sacral			L_Thigh_Superior			L_Thigh_Inferior			L_Thigh_Lateral			L_Shank_Superior			L_Shank_Inferior			L_Shank_Lateral			L_Heel			L_Midfoot_Superior			L_Midfoot_Lateral			L_Toe			R_Thigh_Superior			R_Thigh_Inferior			R_Thigh_Lateral			R_Shank_Superior			R_Shank_Lateral			R_Shank_Inferior			R_Heel			R_Midfoot_Superior			R_Midfoot_Lateral			R_Toe
		X1	Y1	Z1	X2	Y2	Z2	X3	Y3	Z3	X4	Y4	Z4	X5	Y5	Z5	X6	Y6	Z6	X7	Y7	Z7	X8	Y8	Z8	X9	Y9	Z9	X10	Y10	Z10	X11	Y11	Z11	X12	Y12	Z12	X13	Y13	Z13	X14	Y14	Z14	X15	Y15	Z15	X16	Y16	Z16	X17	Y17	Z17	X18	Y18	Z18	X19	Y19	Z19	X20	Y20	Z20	X21	Y21	Z21	X22	Y22	Z22	X23	Y23	Z23

64	   0.315	   -0.62828855380784	    0.91366491080912	   -0.40036591854823	   -0.61166603031827	    0.95456569760174	   -0.66878995209942	   -0.82323839169060	    1.03713725087045	   -0.53818779032431	   -0.53388139079080	    0.79313069609711	   -0.60812562131898	   -0.46235995271478	    0.60462786992380	   -0.59457416197236	   -0.54794542675395	    0.67810092979700	   -0.69298028634685	   -0.56437134370771	    0.47543541172364	   -0.63019834293357	   -0.79502695854786	    0.46342709278348	   -0.65901114347447	   -0.68869678032119	    0.54101952359136	   -0.70344976747261	   -0.98353769960017	    0.55069307905438	   -0.65161685117355	   -0.87851963685372	    0.41526210112571	   -0.69584998018600	   -0.95439089168620	    0.48129035478388	   -0.73188562539787	   -0.89007263711567	    0.27956666842715	   -0.73042114633461	   -0.58775488781144	    0.72368073335045	   -0.43945359555338	   -0.59238684458788	    0.57309475507137	   -0.47957010886989	   -0.67594279720287	    0.61577953199134	   -0.39833217232882	   -0.61404053578041	    0.39963307889637	   -0.47889214709178	   -0.63103043631929	    0.20082430900280	   -0.49453345709854	   -0.68345768507537	    0.28738057839114	   -0.42704228833989	   -0.75738549403603	    0.03609118854407	   -0.53887912604204	   -0.58720947988817	    0.09043643372701	   -0.49445522791600	   -0.67691006045582	    0.02834459605027	   -0.46151854772550	   -0.46877395781635	    0.03847924288294	   -0.46290114856299
65	   0.320	   -0.62894185939674	    0.91385682279176	   -0.40016176935350	   -0.61221962561334	    0.95434937005847	   -0.66871982508048	   -0.82418136564738	    1.03660167458919	   -0.53811476552165	   -0.53452446706182	    0.79273364266674	   -0.60798786828032	   -0.46314147049644	    0.60432271064065	   -0.59403276327613	   -0.54881274124113	    0.67743107091335	   -0.69239992096140	   -0.56473838850611	    0.47450192228708	   -0.62938827106930	   -0.79551177951664	    0.46080893965207	   -0.65834135116335	   -0.68957054327091	    0.53923013515968	   -0.70276217993304	   -0.98470096407476	    0.54693956187944	   -0.65110155935488	   -0.87876726634119	    0.41193664111251	   -0.69514102430392	   -0.95511022377008	    0.47750113624203	   -0.73124446393837	   -0.88950643087662	    0.27594963422415	   -0.72941111953471	   -0.58813324728816	    0.72370688696685	   -0.43928269688653	   -0.59253951224143	    0.57305305825363	   -0.47953897476433	   -0.67611290417623	    0.61555629919487	   -0.39813488743234	   -0.61425230409057	    0.39961287740475	   -0.47878306255835	   -0.63120096054729	    0.20084386090466	   -0.49440182019581	   -0.68344857356223	    0.28733852348107	   -0.42657429082522	   -0.75741545392726	    0.03607267539585	   -0.53884498311430	   -0.58724065934768	    0.09045058324292	   -0.49442143003331	   -0.67692177054156	    0.02830649667793	   -0.46146921206775	   -0.46877552192613	    0.03852823482566	   -0.46295262140979
66	   0.325	   -0.62945689990177	    0.91406979396320	   -0.39993859974097	   -0.61270265154188	    0.95423395492709	   -0.66866298029644	   -0.82510471421772	    1.03601896279125	   -0.53789565777037	   -0.53502028872596	    0.79247946853714	   -0.60790296188399	   -0.46367071365422	    0.60424472696755	   -0.59360151661111	   -0.54949391603280	    0.67689729971679	   -0.69186584416246	   -0.56461198979525	    0.47356397467743	   -0.62866473411661	   -0.79545706917307	    0.45748210030389	   -0.65769208444149	   -0.69014710670623	    0.53707003509933	   -0.70213397480976	   -0.98555695146069	    0.54189108961285	   -0.65057761283940	   -0.87831924025528	    0.40764152830681	   -0.69443324372877	   -0.95532716473145	    0.47249893343047	   -0.73059477874730	   -0.88783379378354	    0.27133272775261	   -0.72840559591866	   -0.58843125711446	    0.72374541645751	   -0.43909173918277	   -0.59265990755212	    0.57300017194089	   -0.47943472950975	   -0.67619167437393	    0.61536896622200	   -0.39787129887874	   -0.61442056742317	    0.39957966448187	   -0.47859379026536	   -0.63138183186443	    0.20085079749827	   -0.49420038826503	   -0.68342015318502	    0.28729274212560	   -0.42599635464181	   -0.75744838525861	    0.03605431957413	   -0.53880502363919	   -0.58726922906100	    0.09046893565807	   -0.49437030364793	   -0.67693221838797	    0.02826473429562	   -0.46141279151454	   -0.46877418722403	    0.03858167158829	   -0.46300979880103
67	   0.330	   -0.62983779757155	    0.91430998628003	   -0.39969270024494	   -0.61309017961259	    0.95423259564096	   -0.66860321083048	   -0.82599560289212	    1.03538820529780	   -0.53755529791751	   -0.53533375287041	    0.79241142163687	   -0.60784922162235	   -0.46386369235174	    0.60446221339725	   -0.59326492332540	   -0.54989453388077	    0.67654861386897	   -0.69137752154813	   -0.56382333156626	    0.47265082589125	   -0.62802890575626	   -0.79462328857392	    0.45328224573734	   -0.65708495413148	   -0.69027263932818	    0.53444502585447	   -0.70158639476107	   -0.98589768854816	    0.53520639328451	   -0.65010155804352	   -0.87686480818068	    0.40215629951713	   -0.69376907160852	   -0.95476801867337	    0.46598120141366	   -0.72998498687034	   -0.88462497950183	    0.26551710795193	   -0.72744311096592	   -0.58865211933516	    0.72379834458651	   -0.43887563403569	   -0.59274878086215	    0.57293593366033	   -0.47925106253487	   -0.67619273164428	    0.61522254369038	   -0.39754478574518	   -0.61454855100463	    0.39953491079104	   -0.47832280593589	   -0.63157121936354	    0.20084850000607	   -0.49393554166935	   -0.68338731419740	    0.28724667825682	   -0.42533356974810	   -0.75748487059313	    0.03603518328873	   -0.53876126729998	   -0.58729848071829	    0.09049359981426	   -0.49430311974151	   -0.67694299405478	    0.02822031316642	   -0.46135089299599	   -0.46877322478839	    0.03864900165501	   -0.46307107919266
68	   0.335	   -0.63009222066684	    0.91457966645700	   -0.39942635775593	   -0.61337776770767	    0.95435418071433	   -0.66852754650106	   -0.82684624037070	    1.03471024382456	   -0.53711991020139	   -0.53544144153701	    0.79257169882626	   -0.60781292046769	   -0.46364965795796	    0.60503925116061	   -0.59301644911244	   -0.54993372861319	    0.67643331138068	   -0.69094223865595	   -0.56221100340022	    0.47179562507442	   -0.62748706230670	   -0.79274820629171	    0.44803822440198	   -0.65654070810115	   -0.68979068948393	    0.53124913689418	   -0.70114188612657	   -0.98547733381637	    0.52651657205337	   -0.64972049403010	   -0.87405801881870	    0.39525556438901	   -0.69318741428936	   -0.95312312873100	    0.45762926528227	   -0.72945617718922	   -0.87940743182041	    0.25831337898705	   -0.72655260160314	   -0.58879989242975	    0.72386792352274	   -0.43863533065732	   -0.59280727081468	    0.57285977295988	   -0.47898956971317	   -0.67612874604319	    0.61511907988161	   -0.39716453768904	   -0.61463776076027	    0.39948090600577	   -0.47797647783176	   -0.63176288147237	    0.20084021727027	   -0.49361948237149	   -0.68335992479625	    0.28720434868354	   -0.42462414166568	   -0.75752485822650	    0.03601503769170	   -0.53871605307787	   -0.58733055834220	    0.09052549573540	   -0.49422309041027	   -0.67695484723350	    0.02817474366504	   -0.46128634670687	   -0.46877531510374	    0.03873655737306	   -0.46313422565361
69	   0.340	   -0.63023133533190	    0.91488038021705	   -0.39914516678863	   -0.61356931371085	    0.95460590561875	   -0.66843041627791	   -0.82765328102814	    1.03398677188138	   -0.53661503137590	   -0.53533300640421	    0.79299600677398	   -0.60778678951039	   -0.46297565433228	    0.60602723688716	   -0.59285702267161	   -0.54954946578486	    0.67659312238215	   -0.69057245079069	   -0.55963275449901	    0.47103435384814	   -0.62704891998405	   -0.78955719961875	    0.44159196569181	   -0.65607939811960	   -0.68854570866256	    0.52737378718666	   -0.70082086104413	   -0.98400944600985	    0.51545996492673	   -0.64947039279766	   -0.86953100945562	    0.38673738264775	   -0.69272086057753	   -0.95005113880624	    0.44714311217739	   -0.72904204862120	   -0.87169007331844	    0.24957517970421	   -0.72575615115235	   -0.58887695961996	    0.72395631125408	   -0.43837466598200	   -0.59283739993774	    0.57277032720027	   -0.47865744142240	   -0.67601131320417	    0.61505734456379	   -0.39674523789982	   -0.61468587857179	    0.39942077134103	   -0.47756780228609	   -0.63194835350051	    0.20082776983223	   -0.49326657078188	   -0.68334353945012	    0.28716908986802	   -0.42391296343154	   -0.75756776970101	    0.03599421053181	   -0.53867178219081	   -0.58736629488695	    0.09056424390271	   -0.49413456601215	   -0.67696749977628	    0.02812957005582	   -0.46122281629691	   -0.46878224953688	    0.03884651995166	   -0.46319615312168
70	   0.345	   -0.63026908733318	    0.91521536392040	   -0.39885488551126	   -0.61367516730035	    0.95499229094285	   -0.66831275628359	   -0.82841633366318	    1.03321953785950	   -0.53606413864930	   -0.53501118910298	    0.79370771925187	   -0.60776865919925	   -0.46181186031155	    0.60745553639130	   -0.59279376929886	   -0.54870437574903	    0.67705729851087	   -0.69028362655664	   -0.55597887431456	    0.47040311606152	   -0.62672689560046	   -0.78477804678852	    0.43382170287565	   -0.65571988270890	   -0.68638834532812	    0.52271813006736	   -0.70063924308367	   -0.98116888212133	    0.50172196075237	   -0.64937596807402	   -0.86291432677317	    0.37645283050067	   -0.69239191238457	   -0.94518845041824	    0.43427831586792	   -0.72876888173496	   -0.86099549991045	    0.23923266114964	   -0.72507091108149	   -0.58888317388804	    0.72406500252781	   -0.43809848914278	   -0.59284166318427	    0.57266562141611	   -0.47826615880365	   -0.67585038702091	    0.61503299196268	   -0.39630577284508	   -0.61468638965531	    0.39935809864871	   -0.47711522145011	   -0.63211679524173	    0.20081198489372	   -0.49289270500387	   -0.68334028558711	    0.28714244524565	   -0.42324359485682	   -0.75761258668482	    0.03597318177119	   -0.53863081100617	   -0.58740531120509	    0.09060828727068	   -0.49404217579726	   -0.67698014004051	    0.02808623607079	   -0.46116390040512	   -0.46879471038010	    0.03897650331675	   -0.46325319075655
71	   0.350	   -0.63021943759706	    0.91558958163813	   -0.39856008093527	   -0.61373056627325	    0.95550793793618	   -0.66817415556761	   -0.82913582921759	    1.03240970947149	   -0.53548820010288	   -0.53448669175164	    0.79471266149740	   -0.60776207734975	   -0.46015705221399	    0.60932309613333	   -0.59283739592630	   -0.54739125919282	    0.67783690257836	   -0.69009136897898	   -0.55118533781820	    0.46993354169303	   -0.62653391841769	   -0.77815586225278	    0.42466329909457	   -0.65548057232828	   -0.68318308748587	    0.51719982423675	   -0.70060742733910	   -0.97659984721519	    0.48507445700118	   -0.64945227809738	   -0.85386031276866	    0.36433315850765	   -0.69221230636292	   -0.93816324088266	    0.41888009502426	   -0.72865447744416	   -0.84689653216041	    0.22731979947607	   -0.72450891147124	   -0.58881650943042	    0.72419376332300	   -0.43781207176110	   -0.59281745433413	    0.57254478712452	   -0.47783054775796	   -0.67565243866339	    0.61503915794867	   -0.39586681248639	   -0.61463031781145	    0.39929583700601	   -0.47664150547688	   -0.63225346949555	    0.20079392844634	   -0.49251686626394	   -0.68334851605193	    0.28712377604593	   -0.42265279450320	   -0.75765782318872	    0.03595227015610	   -0.53859550190424	   -0.58744625758758	    0.09065507378677	   -0.49395031993824	   -0.67699216530484	    0.02804633785801	   -0.46111248937611	   -0.46881208573028	    0.03911973778709	   -0.46330165130937
